<?xml version="1.0" encoding="UTF-8"?>
<svg width="752pt" height="752pt" version="1.1" viewBox="0 0 752 752" xmlns="http://www.w3.org/2000/svg">
 <g>
  <path d="m486.99 586.76h-0.003907-0.4375c-43.242-0.21094-79.648-31.738-86.332-73.996h-48.438c-6.7109 42.469-43.309 73.996-86.777 73.996-23.594 0-45.742-9.2227-62.367-25.969-16.621-16.746-25.68-38.965-25.504-62.566 0.35547-48.086 40.242-87.207 88.914-87.207h220.19c33.934 0 65.242 19.336 79.766 49.262 6.2773 12.926 9.3242 27.395 8.8047 41.832-0.81641 22.742-10.375 44.039-26.914 59.969-16.516 15.914-38.148 24.68-60.898 24.68zm-139.25-83.246h56.527c2.3594 0 4.3359 1.7734 4.5977 4.1172 4.3828 39.641 37.805 69.684 77.738 69.879h0.39063c41.828 0 77.078-33.969 78.578-75.73 0.46484-12.934-2.2617-25.887-7.8828-37.461-12.988-26.762-41.031-44.055-71.445-44.055h-220.19c-43.609 0-79.344 35-79.664 78.023-0.15625 21.121 7.9492 41 22.816 55.984 14.875 14.984 34.691 23.234 55.801 23.234 40.141 0 73.73-30.043 78.137-69.883 0.25781-2.3359 2.2383-4.1094 4.5977-4.1094z"/>
  <path d="m265.01 545.14c-10.199 0-18.5-8.2969-18.5-18.5v-4.625h-4.625c-10.199 0-18.5-8.2969-18.5-18.5 0-10.199 8.2969-18.5 18.5-18.5h4.625v-4.625c0-10.199 8.2969-18.5 18.5-18.5 10.199 0 18.5 8.2969 18.5 18.5v4.625h4.625c10.199 0 18.5 8.2969 18.5 18.5 0 10.199-8.2969 18.5-18.5 18.5h-4.625v4.625c-0.003906 10.203-8.3008 18.5-18.5 18.5zm-23.125-50.871c-5.1016 0-9.25 4.1484-9.25 9.25s4.1484 9.25 9.25 9.25h9.25c2.5547 0 4.625 2.0703 4.625 4.625v9.25c0 5.1016 4.1484 9.25 9.25 9.25 5.1016 0 9.25-4.1484 9.25-9.25v-9.25c0-2.5547 2.0703-4.625 4.625-4.625h9.25c5.1016 0 9.25-4.1484 9.25-9.25s-4.1484-9.25-9.25-9.25h-9.25c-2.5547 0-4.625-2.0703-4.625-4.625v-9.25c0-5.1016-4.1484-9.25-9.25-9.25-5.1016 0-9.25 4.1484-9.25 9.25v9.25c0 2.5547-2.0703 4.625-4.625 4.625z"/>
  <path d="m454.62 522.01c-10.199 0-18.5-8.2969-18.5-18.5 0-10.199 8.2969-18.5 18.5-18.5 10.199 0 18.5 8.2969 18.5 18.5-0.003906 10.203-8.3008 18.5-18.5 18.5zm0-27.746c-5.1016 0-9.25 4.1484-9.25 9.25s4.1484 9.25 9.25 9.25 9.25-4.1484 9.25-9.25c-0.003906-5.1016-4.1523-9.25-9.25-9.25z"/>
  <path d="m519.37 522.01c-10.199 0-18.5-8.2969-18.5-18.5 0-10.199 8.2969-18.5 18.5-18.5 10.199 0 18.5 8.2969 18.5 18.5s-8.3008 18.5-18.5 18.5zm0-27.746c-5.1016 0-9.25 4.1484-9.25 9.25s4.1484 9.25 9.25 9.25c5.1016 0 9.25-4.1484 9.25-9.25s-4.1484-9.25-9.25-9.25z"/>
  <path d="m487 485.02c-10.199 0-18.5-8.2969-18.5-18.5 0-10.199 8.2969-18.5 18.5-18.5 10.199 0 18.5 8.2969 18.5 18.5 0 10.199-8.2969 18.5-18.5 18.5zm0-27.75c-5.1016 0-9.25 4.1484-9.25 9.25s4.1484 9.25 9.25 9.25c5.1016 0 9.25-4.1484 9.25-9.25s-4.1484-9.25-9.25-9.25z"/>
  <path d="m487 559.01c-10.199 0-18.5-8.2969-18.5-18.5 0-10.199 8.2969-18.5 18.5-18.5 10.199 0 18.5 8.2969 18.5 18.5s-8.2969 18.5-18.5 18.5zm0-27.75c-5.1016 0-9.25 4.1484-9.25 9.25 0 5.1016 4.1484 9.25 9.25 9.25 5.1016 0 9.25-4.1484 9.25-9.25 0-5.0977-4.1484-9.25-9.25-9.25z"/>
  <path d="m413 485.02h-73.996c-2.5547 0-4.625-2.0703-4.625-4.625s2.0703-4.625 4.625-4.625h73.996c2.5547 0 4.625 2.0703 4.625 4.625s-2.0703 4.625-4.625 4.625z"/>
  <path d="m385.25 457.27h-18.5c-2.5547 0-4.625-2.0703-4.625-4.625s2.0703-4.625 4.625-4.625h18.5c2.5547 0 4.625 2.0703 4.625 4.625s-2.0703 4.625-4.625 4.625z"/>
  <path d="m422.25 452.64c0 5.1094-4.1406 9.25-9.25 9.25s-9.25-4.1406-9.25-9.25 4.1406-9.25 9.25-9.25 9.25 4.1406 9.25 9.25"/>
  <path d="m551.75 221.4c0 5.1094-4.1445 9.25-9.25 9.25-5.1094 0-9.25-4.1406-9.25-9.25 0-5.1055 4.1406-9.2461 9.25-9.2461 5.1055 0 9.25 4.1406 9.25 9.2461"/>
  <path d="m579.49 406.39c0 5.1055-4.1406 9.2461-9.25 9.2461-5.1055 0-9.25-4.1406-9.25-9.2461 0-5.1094 4.1445-9.25 9.25-9.25 5.1094 0 9.25 4.1406 9.25 9.25"/>
  <path d="m450 369.39c0 5.1094-4.1445 9.25-9.25 9.25-5.1094 0-9.25-4.1406-9.25-9.25s4.1406-9.25 9.25-9.25c5.1055 0 9.25 4.1406 9.25 9.25"/>
  <path d="m302 369.39c0 5.1094-4.1406 9.25-9.25 9.25s-9.25-4.1406-9.25-9.25 4.1406-9.25 9.25-9.25 9.25 4.1406 9.25 9.25"/>
  <path d="m228.01 230.65c0 5.1094-4.1406 9.25-9.25 9.25-5.1094 0-9.25-4.1406-9.25-9.25 0-5.1055 4.1406-9.25 9.25-9.25 5.1094 0 9.25 4.1445 9.25 9.25"/>
  <path d="m191.01 397.14c0 5.1055-4.1406 9.25-9.25 9.25-5.1055 0-9.25-4.1445-9.25-9.25 0-5.1094 4.1445-9.25 9.25-9.25 5.1094 0 9.25 4.1406 9.25 9.25"/>
  <path d="m348.25 452.64c0 5.1094-4.1406 9.25-9.25 9.25s-9.25-4.1406-9.25-9.25 4.1406-9.25 9.25-9.25 9.25 4.1406 9.25 9.25"/>
  <path d="m376 337.02c-2.5547 0-4.625-2.0703-4.625-4.625v-11.609c0-2.5547 2.0703-4.625 4.625-4.625s4.625 2.0703 4.625 4.625v11.609c0 2.5547-2.0703 4.625-4.625 4.625z"/>
  <path d="m376 186.1c-2.5547 0-4.625-2.0703-4.625-4.625v-11.609c0-2.5547 2.0703-4.625 4.625-4.625s4.625 2.0703 4.625 4.625v11.609c0 2.5547-2.0703 4.625-4.625 4.625z"/>
  <path d="m306.35 255.76h-11.609c-2.5547 0-4.625-2.0703-4.625-4.625 0-2.5547 2.0703-4.625 4.625-4.625h11.609c2.5547 0 4.625 2.0703 4.625 4.625 0 2.5508-2.0742 4.625-4.625 4.625z"/>
  <path d="m457.27 255.76h-11.609c-2.5547 0-4.625-2.0703-4.625-4.625 0-2.5547 2.0703-4.625 4.625-4.625h11.609c2.5547 0 4.625 2.0703 4.625 4.625 0 2.5508-2.0703 4.625-4.625 4.625z"/>
  <path d="m318.54 313.22c-1.1836 0-2.3672-0.45312-3.2695-1.3555-1.8047-1.8047-1.8047-4.7344 0-6.5391l8.2109-8.2109c1.8047-1.8047 4.7344-1.8047 6.5391 0 1.8047 1.8047 1.8047 4.7344 0 6.5391l-8.2109 8.2109c-0.90234 0.90234-2.0859 1.3555-3.2695 1.3555z"/>
  <path d="m425.25 206.5c-1.1836 0-2.3672-0.45312-3.2695-1.3555-1.8047-1.8047-1.8047-4.7344 0-6.5391l8.2109-8.2109c1.8047-1.8047 4.7344-1.8047 6.5391 0 1.8047 1.8047 1.8047 4.7344 0 6.5391l-8.2109 8.2109c-0.90234 0.90234-2.0859 1.3555-3.2695 1.3555z"/>
  <path d="m326.75 206.5c-1.1836 0-2.3672-0.45312-3.2695-1.3555l-8.2109-8.2109c-1.8047-1.8047-1.8047-4.7344 0-6.5391 1.8047-1.8047 4.7344-1.8047 6.5391 0l8.2109 8.2109c1.8047 1.8047 1.8047 4.7344 0 6.5391-0.90234 0.90234-2.0859 1.3555-3.2695 1.3555z"/>
  <path d="m433.46 313.22c-1.1836 0-2.3672-0.45312-3.2695-1.3555l-8.2109-8.2109c-1.8047-1.8047-1.8047-4.7344 0-6.5391 1.8047-1.8047 4.7344-1.8047 6.5391 0l8.2109 8.2109c1.8047 1.8047 1.8047 4.7344 0 6.5391-0.90234 0.90234-2.0859 1.3555-3.2695 1.3555z"/>
  <path d="m376 267.37c-1.1992 0-2.3828-0.46484-3.2734-1.3555l-23.219-23.219c-1.8047-1.8047-1.8047-4.7344 0-6.5391 1.8047-1.8047 4.7344-1.8047 6.5391 0l20.863 20.863 20.238-10.117c2.2852-1.1406 5.0625-0.21484 6.2031 2.0664 1.1406 2.2852 0.21484 5.0625-2.0664 6.2031l-23.219 11.609c-0.66016 0.32812-1.3672 0.48828-2.0664 0.48828z"/>
  <path d="m376 337.02c-47.359 0-85.891-38.531-85.891-85.891 0.003906-47.355 38.531-85.887 85.891-85.887s85.891 38.531 85.891 85.891c0 47.359-38.527 85.887-85.891 85.887zm0-162.53c-42.258 0-76.641 34.383-76.641 76.641 0 42.258 34.379 76.641 76.641 76.641 42.258 0 76.641-34.379 76.641-76.641 0-42.262-34.379-76.641-76.641-76.641z"/>
  <path d="m403.75 420.27h-55.496c-2.5547 0-4.625-2.0703-4.625-4.625 0-17.852 14.523-32.375 32.375-32.375 17.852 0 32.375 14.523 32.375 32.375-0.003906 2.5586-2.0742 4.625-4.6289 4.625zm-50.41-9.2461h45.32c-2.1484-10.539-11.492-18.5-22.66-18.5-11.164 0-20.508 7.957-22.66 18.5z"/>
  <path d="m376 392.52c-2.5547 0-4.625-2.0703-4.625-4.625v-55.496c0-2.5547 2.0703-4.625 4.625-4.625s4.625 2.0703 4.625 4.625v55.496c0 2.5547-2.0703 4.625-4.625 4.625z"/>
  <path d="m218.76 364.77c-12.75 0-23.125-10.375-23.125-23.125s10.375-23.125 23.125-23.125 23.125 10.375 23.125 23.125-10.375 23.125-23.125 23.125zm0-37c-7.6484 0-13.875 6.2227-13.875 13.875 0 7.6484 6.2227 13.875 13.875 13.875 7.6484 0 13.875-6.2227 13.875-13.875 0-7.6484-6.2266-13.875-13.875-13.875z"/>
  <path d="m514.75 364.77c-17.852 0-32.375-14.523-32.375-32.375 0-17.852 14.523-32.375 32.375-32.375 17.852 0 32.375 14.523 32.375 32.375 0 17.852-14.523 32.375-32.375 32.375zm0-55.496c-12.75 0-23.125 10.375-23.125 23.125s10.375 23.125 23.125 23.125 23.125-10.375 23.125-23.125c0-12.754-10.375-23.125-23.125-23.125z"/>
 </g>
</svg>
